<?xml version="1.0" encoding="utf-8" standalone="no"?>
<!DOCTYPE svg PUBLIC "-//W3C//DTD SVG 1.1//EN"
  "http://www.w3.org/Graphics/SVG/1.1/DTD/svg11.dtd">
<!-- Created with matplotlib (https://matplotlib.org/) -->
<svg height="756pt" version="1.1" viewBox="0 0 1332 756" width="1332pt" xmlns="http://www.w3.org/2000/svg" xmlns:xlink="http://www.w3.org/1999/xlink">
 <defs>
  <style type="text/css">
*{stroke-linecap:butt;stroke-linejoin:round;}
  </style>
 </defs>
 <g id="figure_1">
  <g id="patch_1">
   <path d="M 0 756 
L 1332 756 
L 1332 0 
L 0 0 
z
" style="fill:#ffffff;"/>
  </g>
  <g id="axes_1">
   <g id="patch_2">
    <path d="M 166.5 661.5 
L 1198.8 661.5 
L 1198.8 90.72 
L 166.5 90.72 
z
" style="fill:#eaeaf2;"/>
   </g>
   <g id="matplotlib.axis_1">
    <g id="xtick_1">
     <g id="line2d_1">
      <path clip-path="url(#p1bb1440db9)" d="M 213.422727 661.5 
L 213.422727 90.72 
" style="fill:none;stroke:#ffffff;stroke-linecap:round;"/>
     </g>
     <g id="text_1">
      <!-- 0 -->
      <defs>
       <path d="M 4.15625 35.296875 
Q 4.15625 48 6.765625 55.734375 
Q 9.375 63.484375 14.515625 67.671875 
Q 19.671875 71.875 27.484375 71.875 
Q 33.25 71.875 37.59375 69.546875 
Q 41.9375 67.234375 44.765625 62.859375 
Q 47.609375 58.5 49.21875 52.21875 
Q 50.828125 45.953125 50.828125 35.296875 
Q 50.828125 22.703125 48.234375 14.96875 
Q 45.65625 7.234375 40.5 3 
Q 35.359375 -1.21875 27.484375 -1.21875 
Q 17.140625 -1.21875 11.234375 6.203125 
Q 4.15625 15.140625 4.15625 35.296875 
z
M 13.1875 35.296875 
Q 13.1875 17.671875 17.3125 11.828125 
Q 21.4375 6 27.484375 6 
Q 33.546875 6 37.671875 11.859375 
Q 41.796875 17.71875 41.796875 35.296875 
Q 41.796875 52.984375 37.671875 58.78125 
Q 33.546875 64.59375 27.390625 64.59375 
Q 21.34375 64.59375 17.71875 59.46875 
Q 13.1875 52.9375 13.1875 35.296875 
z
" id="ArialMT-48"/>
      </defs>
      <g style="fill:#262626;" transform="translate(205.164735 692.258703)scale(0.297 -0.297)">
       <use xlink:href="#ArialMT-48"/>
      </g>
     </g>
    </g>
    <g id="xtick_2">
     <g id="line2d_2">
      <path clip-path="url(#p1bb1440db9)" d="M 399.255311 661.5 
L 399.255311 90.72 
" style="fill:none;stroke:#ffffff;stroke-linecap:round;"/>
     </g>
     <g id="text_2">
      <!-- 2000 -->
      <defs>
       <path d="M 50.34375 8.453125 
L 50.34375 0 
L 3.03125 0 
Q 2.9375 3.171875 4.046875 6.109375 
Q 5.859375 10.9375 9.828125 15.625 
Q 13.8125 20.3125 21.34375 26.46875 
Q 33.015625 36.03125 37.109375 41.625 
Q 41.21875 47.21875 41.21875 52.203125 
Q 41.21875 57.421875 37.46875 61 
Q 33.734375 64.59375 27.734375 64.59375 
Q 21.390625 64.59375 17.578125 60.78125 
Q 13.765625 56.984375 13.71875 50.25 
L 4.6875 51.171875 
Q 5.609375 61.28125 11.65625 66.578125 
Q 17.71875 71.875 27.9375 71.875 
Q 38.234375 71.875 44.234375 66.15625 
Q 50.25 60.453125 50.25 52 
Q 50.25 47.703125 48.484375 43.546875 
Q 46.734375 39.40625 42.65625 34.8125 
Q 38.578125 30.21875 29.109375 22.21875 
Q 21.1875 15.578125 18.9375 13.203125 
Q 16.703125 10.84375 15.234375 8.453125 
z
" id="ArialMT-50"/>
      </defs>
      <g style="fill:#262626;" transform="translate(366.223342 692.258703)scale(0.297 -0.297)">
       <use xlink:href="#ArialMT-50"/>
       <use x="55.615234" xlink:href="#ArialMT-48"/>
       <use x="111.230469" xlink:href="#ArialMT-48"/>
       <use x="166.845703" xlink:href="#ArialMT-48"/>
      </g>
     </g>
    </g>
    <g id="xtick_3">
     <g id="line2d_3">
      <path clip-path="url(#p1bb1440db9)" d="M 585.087894 661.5 
L 585.087894 90.72 
" style="fill:none;stroke:#ffffff;stroke-linecap:round;"/>
     </g>
     <g id="text_3">
      <!-- 4000 -->
      <defs>
       <path d="M 32.328125 0 
L 32.328125 17.140625 
L 1.265625 17.140625 
L 1.265625 25.203125 
L 33.9375 71.578125 
L 41.109375 71.578125 
L 41.109375 25.203125 
L 50.78125 25.203125 
L 50.78125 17.140625 
L 41.109375 17.140625 
L 41.109375 0 
z
M 32.328125 25.203125 
L 32.328125 57.46875 
L 9.90625 25.203125 
z
" id="ArialMT-52"/>
      </defs>
      <g style="fill:#262626;" transform="translate(552.055925 692.258703)scale(0.297 -0.297)">
       <use xlink:href="#ArialMT-52"/>
       <use x="55.615234" xlink:href="#ArialMT-48"/>
       <use x="111.230469" xlink:href="#ArialMT-48"/>
       <use x="166.845703" xlink:href="#ArialMT-48"/>
      </g>
     </g>
    </g>
    <g id="xtick_4">
     <g id="line2d_4">
      <path clip-path="url(#p1bb1440db9)" d="M 770.920477 661.5 
L 770.920477 90.72 
" style="fill:none;stroke:#ffffff;stroke-linecap:round;"/>
     </g>
     <g id="text_4">
      <!-- 6000 -->
      <defs>
       <path d="M 49.75 54.046875 
L 41.015625 53.375 
Q 39.84375 58.546875 37.703125 60.890625 
Q 34.125 64.65625 28.90625 64.65625 
Q 24.703125 64.65625 21.53125 62.3125 
Q 17.390625 59.28125 14.984375 53.46875 
Q 12.59375 47.65625 12.5 36.921875 
Q 15.671875 41.75 20.265625 44.09375 
Q 24.859375 46.4375 29.890625 46.4375 
Q 38.671875 46.4375 44.84375 39.96875 
Q 51.03125 33.5 51.03125 23.25 
Q 51.03125 16.5 48.125 10.71875 
Q 45.21875 4.9375 40.140625 1.859375 
Q 35.0625 -1.21875 28.609375 -1.21875 
Q 17.625 -1.21875 10.6875 6.859375 
Q 3.765625 14.9375 3.765625 33.5 
Q 3.765625 54.25 11.421875 63.671875 
Q 18.109375 71.875 29.4375 71.875 
Q 37.890625 71.875 43.28125 67.140625 
Q 48.6875 62.40625 49.75 54.046875 
z
M 13.875 23.1875 
Q 13.875 18.65625 15.796875 14.5 
Q 17.71875 10.359375 21.1875 8.171875 
Q 24.65625 6 28.46875 6 
Q 34.03125 6 38.03125 10.484375 
Q 42.046875 14.984375 42.046875 22.703125 
Q 42.046875 30.125 38.078125 34.390625 
Q 34.125 38.671875 28.125 38.671875 
Q 22.171875 38.671875 18.015625 34.390625 
Q 13.875 30.125 13.875 23.1875 
z
" id="ArialMT-54"/>
      </defs>
      <g style="fill:#262626;" transform="translate(737.888508 692.258703)scale(0.297 -0.297)">
       <use xlink:href="#ArialMT-54"/>
       <use x="55.615234" xlink:href="#ArialMT-48"/>
       <use x="111.230469" xlink:href="#ArialMT-48"/>
       <use x="166.845703" xlink:href="#ArialMT-48"/>
      </g>
     </g>
    </g>
    <g id="xtick_5">
     <g id="line2d_5">
      <path clip-path="url(#p1bb1440db9)" d="M 956.75306 661.5 
L 956.75306 90.72 
" style="fill:none;stroke:#ffffff;stroke-linecap:round;"/>
     </g>
     <g id="text_5">
      <!-- 8000 -->
      <defs>
       <path d="M 17.671875 38.8125 
Q 12.203125 40.828125 9.5625 44.53125 
Q 6.9375 48.25 6.9375 53.421875 
Q 6.9375 61.234375 12.546875 66.546875 
Q 18.171875 71.875 27.484375 71.875 
Q 36.859375 71.875 42.578125 66.421875 
Q 48.296875 60.984375 48.296875 53.171875 
Q 48.296875 48.1875 45.671875 44.5 
Q 43.0625 40.828125 37.75 38.8125 
Q 44.34375 36.671875 47.78125 31.875 
Q 51.21875 27.09375 51.21875 20.453125 
Q 51.21875 11.28125 44.71875 5.03125 
Q 38.234375 -1.21875 27.640625 -1.21875 
Q 17.046875 -1.21875 10.546875 5.046875 
Q 4.046875 11.328125 4.046875 20.703125 
Q 4.046875 27.6875 7.59375 32.390625 
Q 11.140625 37.109375 17.671875 38.8125 
z
M 15.921875 53.71875 
Q 15.921875 48.640625 19.1875 45.40625 
Q 22.46875 42.1875 27.6875 42.1875 
Q 32.765625 42.1875 36.015625 45.375 
Q 39.265625 48.578125 39.265625 53.21875 
Q 39.265625 58.0625 35.90625 61.359375 
Q 32.5625 64.65625 27.59375 64.65625 
Q 22.5625 64.65625 19.234375 61.421875 
Q 15.921875 58.203125 15.921875 53.71875 
z
M 13.09375 20.65625 
Q 13.09375 16.890625 14.875 13.375 
Q 16.65625 9.859375 20.171875 7.921875 
Q 23.6875 6 27.734375 6 
Q 34.03125 6 38.125 10.046875 
Q 42.234375 14.109375 42.234375 20.359375 
Q 42.234375 26.703125 38.015625 30.859375 
Q 33.796875 35.015625 27.4375 35.015625 
Q 21.234375 35.015625 17.15625 30.90625 
Q 13.09375 26.8125 13.09375 20.65625 
z
" id="ArialMT-56"/>
      </defs>
      <g style="fill:#262626;" transform="translate(923.721092 692.258703)scale(0.297 -0.297)">
       <use xlink:href="#ArialMT-56"/>
       <use x="55.615234" xlink:href="#ArialMT-48"/>
       <use x="111.230469" xlink:href="#ArialMT-48"/>
       <use x="166.845703" xlink:href="#ArialMT-48"/>
      </g>
     </g>
    </g>
    <g id="xtick_6">
     <g id="line2d_6">
      <path clip-path="url(#p1bb1440db9)" d="M 1142.585644 661.5 
L 1142.585644 90.72 
" style="fill:none;stroke:#ffffff;stroke-linecap:round;"/>
     </g>
     <g id="text_6">
      <!-- 10000 -->
      <defs>
       <path d="M 37.25 0 
L 28.46875 0 
L 28.46875 56 
Q 25.296875 52.984375 20.140625 49.953125 
Q 14.984375 46.921875 10.890625 45.40625 
L 10.890625 53.90625 
Q 18.265625 57.375 23.78125 62.296875 
Q 29.296875 67.234375 31.59375 71.875 
L 37.25 71.875 
z
" id="ArialMT-49"/>
      </defs>
      <g style="fill:#262626;" transform="translate(1101.295683 692.258703)scale(0.297 -0.297)">
       <use xlink:href="#ArialMT-49"/>
       <use x="55.615234" xlink:href="#ArialMT-48"/>
       <use x="111.230469" xlink:href="#ArialMT-48"/>
       <use x="166.845703" xlink:href="#ArialMT-48"/>
       <use x="222.460938" xlink:href="#ArialMT-48"/>
      </g>
     </g>
    </g>
    <g id="text_7">
     <!-- Episodes -->
     <defs>
      <path d="M 7.90625 0 
L 7.90625 71.578125 
L 59.671875 71.578125 
L 59.671875 63.140625 
L 17.390625 63.140625 
L 17.390625 41.21875 
L 56.984375 41.21875 
L 56.984375 32.8125 
L 17.390625 32.8125 
L 17.390625 8.453125 
L 61.328125 8.453125 
L 61.328125 0 
z
" id="ArialMT-69"/>
      <path d="M 6.59375 -19.875 
L 6.59375 51.859375 
L 14.59375 51.859375 
L 14.59375 45.125 
Q 17.4375 49.078125 21 51.046875 
Q 24.5625 53.03125 29.640625 53.03125 
Q 36.28125 53.03125 41.359375 49.609375 
Q 46.4375 46.1875 49.015625 39.953125 
Q 51.609375 33.734375 51.609375 26.3125 
Q 51.609375 18.359375 48.75 11.984375 
Q 45.90625 5.609375 40.453125 2.21875 
Q 35.015625 -1.171875 29 -1.171875 
Q 24.609375 -1.171875 21.109375 0.6875 
Q 17.625 2.546875 15.375 5.375 
L 15.375 -19.875 
z
M 14.546875 25.640625 
Q 14.546875 15.625 18.59375 10.84375 
Q 22.65625 6.0625 28.421875 6.0625 
Q 34.28125 6.0625 38.453125 11.015625 
Q 42.625 15.96875 42.625 26.375 
Q 42.625 36.28125 38.546875 41.203125 
Q 34.46875 46.140625 28.8125 46.140625 
Q 23.1875 46.140625 18.859375 40.890625 
Q 14.546875 35.640625 14.546875 25.640625 
z
" id="ArialMT-112"/>
      <path d="M 6.640625 61.46875 
L 6.640625 71.578125 
L 15.4375 71.578125 
L 15.4375 61.46875 
z
M 6.640625 0 
L 6.640625 51.859375 
L 15.4375 51.859375 
L 15.4375 0 
z
" id="ArialMT-105"/>
      <path d="M 3.078125 15.484375 
L 11.765625 16.84375 
Q 12.5 11.625 15.84375 8.84375 
Q 19.1875 6.0625 25.203125 6.0625 
Q 31.25 6.0625 34.171875 8.515625 
Q 37.109375 10.984375 37.109375 14.3125 
Q 37.109375 17.28125 34.515625 19 
Q 32.71875 20.171875 25.53125 21.96875 
Q 15.875 24.421875 12.140625 26.203125 
Q 8.40625 27.984375 6.46875 31.125 
Q 4.546875 34.28125 4.546875 38.09375 
Q 4.546875 41.546875 6.125 44.5 
Q 7.71875 47.46875 10.453125 49.421875 
Q 12.5 50.921875 16.03125 51.96875 
Q 19.578125 53.03125 23.640625 53.03125 
Q 29.734375 53.03125 34.34375 51.265625 
Q 38.96875 49.515625 41.15625 46.5 
Q 43.359375 43.5 44.1875 38.484375 
L 35.59375 37.3125 
Q 35.015625 41.3125 32.203125 43.546875 
Q 29.390625 45.796875 24.265625 45.796875 
Q 18.21875 45.796875 15.625 43.796875 
Q 13.03125 41.796875 13.03125 39.109375 
Q 13.03125 37.40625 14.109375 36.03125 
Q 15.1875 34.625 17.484375 33.6875 
Q 18.796875 33.203125 25.25 31.453125 
Q 34.578125 28.953125 38.25 27.359375 
Q 41.9375 25.78125 44.03125 22.75 
Q 46.140625 19.734375 46.140625 15.234375 
Q 46.140625 10.84375 43.578125 6.953125 
Q 41.015625 3.078125 36.171875 0.953125 
Q 31.34375 -1.171875 25.25 -1.171875 
Q 15.140625 -1.171875 9.84375 3.03125 
Q 4.546875 7.234375 3.078125 15.484375 
z
" id="ArialMT-115"/>
      <path d="M 3.328125 25.921875 
Q 3.328125 40.328125 11.328125 47.265625 
Q 18.015625 53.03125 27.640625 53.03125 
Q 38.328125 53.03125 45.109375 46.015625 
Q 51.90625 39.015625 51.90625 26.65625 
Q 51.90625 16.65625 48.90625 10.90625 
Q 45.90625 5.171875 40.15625 2 
Q 34.421875 -1.171875 27.640625 -1.171875 
Q 16.75 -1.171875 10.03125 5.8125 
Q 3.328125 12.796875 3.328125 25.921875 
z
M 12.359375 25.921875 
Q 12.359375 15.96875 16.703125 11.015625 
Q 21.046875 6.0625 27.640625 6.0625 
Q 34.1875 6.0625 38.53125 11.03125 
Q 42.875 16.015625 42.875 26.21875 
Q 42.875 35.84375 38.5 40.796875 
Q 34.125 45.75 27.640625 45.75 
Q 21.046875 45.75 16.703125 40.8125 
Q 12.359375 35.890625 12.359375 25.921875 
z
" id="ArialMT-111"/>
      <path d="M 40.234375 0 
L 40.234375 6.546875 
Q 35.296875 -1.171875 25.734375 -1.171875 
Q 19.53125 -1.171875 14.328125 2.25 
Q 9.125 5.671875 6.265625 11.796875 
Q 3.421875 17.921875 3.421875 25.875 
Q 3.421875 33.640625 6 39.96875 
Q 8.59375 46.296875 13.765625 49.65625 
Q 18.953125 53.03125 25.34375 53.03125 
Q 30.03125 53.03125 33.6875 51.046875 
Q 37.359375 49.078125 39.65625 45.90625 
L 39.65625 71.578125 
L 48.390625 71.578125 
L 48.390625 0 
z
M 12.453125 25.875 
Q 12.453125 15.921875 16.640625 10.984375 
Q 20.84375 6.0625 26.5625 6.0625 
Q 32.328125 6.0625 36.34375 10.765625 
Q 40.375 15.484375 40.375 25.140625 
Q 40.375 35.796875 36.265625 40.765625 
Q 32.171875 45.75 26.171875 45.75 
Q 20.3125 45.75 16.375 40.96875 
Q 12.453125 36.1875 12.453125 25.875 
z
" id="ArialMT-100"/>
      <path d="M 42.09375 16.703125 
L 51.171875 15.578125 
Q 49.03125 7.625 43.21875 3.21875 
Q 37.40625 -1.171875 28.375 -1.171875 
Q 17 -1.171875 10.328125 5.828125 
Q 3.65625 12.84375 3.65625 25.484375 
Q 3.65625 38.578125 10.390625 45.796875 
Q 17.140625 53.03125 27.875 53.03125 
Q 38.28125 53.03125 44.875 45.953125 
Q 51.46875 38.875 51.46875 26.03125 
Q 51.46875 25.25 51.421875 23.6875 
L 12.75 23.6875 
Q 13.234375 15.140625 17.578125 10.59375 
Q 21.921875 6.0625 28.421875 6.0625 
Q 33.25 6.0625 36.671875 8.59375 
Q 40.09375 11.140625 42.09375 16.703125 
z
M 13.234375 30.90625 
L 42.1875 30.90625 
Q 41.609375 37.453125 38.875 40.71875 
Q 34.671875 45.796875 27.984375 45.796875 
Q 21.921875 45.796875 17.796875 41.75 
Q 13.671875 37.703125 13.234375 30.90625 
z
" id="ArialMT-101"/>
     </defs>
     <g style="fill:#262626;" transform="translate(635.343672 718.624547)scale(0.23 -0.23)">
      <use xlink:href="#ArialMT-69"/>
      <use x="66.699219" xlink:href="#ArialMT-112"/>
      <use x="122.314453" xlink:href="#ArialMT-105"/>
      <use x="144.53125" xlink:href="#ArialMT-115"/>
      <use x="194.53125" xlink:href="#ArialMT-111"/>
      <use x="250.146484" xlink:href="#ArialMT-100"/>
      <use x="305.761719" xlink:href="#ArialMT-101"/>
      <use x="361.376953" xlink:href="#ArialMT-115"/>
     </g>
    </g>
   </g>
   <g id="matplotlib.axis_2">
    <g id="ytick_1">
     <g id="line2d_7">
      <path clip-path="url(#p1bb1440db9)" d="M 166.5 595.988307 
L 1198.8 595.988307 
" style="fill:none;stroke:#ffffff;stroke-linecap:round;"/>
     </g>
     <g id="text_8">
      <!-- 25 -->
      <defs>
       <path d="M 4.15625 18.75 
L 13.375 19.53125 
Q 14.40625 12.796875 18.140625 9.390625 
Q 21.875 6 27.15625 6 
Q 33.5 6 37.890625 10.78125 
Q 42.28125 15.578125 42.28125 23.484375 
Q 42.28125 31 38.0625 35.34375 
Q 33.84375 39.703125 27 39.703125 
Q 22.75 39.703125 19.328125 37.765625 
Q 15.921875 35.84375 13.96875 32.765625 
L 5.71875 33.84375 
L 12.640625 70.609375 
L 48.25 70.609375 
L 48.25 62.203125 
L 19.671875 62.203125 
L 15.828125 42.96875 
Q 22.265625 47.46875 29.34375 47.46875 
Q 38.71875 47.46875 45.15625 40.96875 
Q 51.609375 34.46875 51.609375 24.265625 
Q 51.609375 14.546875 45.953125 7.46875 
Q 39.0625 -1.21875 27.15625 -1.21875 
Q 17.390625 -1.21875 11.203125 4.25 
Q 5.03125 9.71875 4.15625 18.75 
z
" id="ArialMT-53"/>
      </defs>
      <g style="fill:#262626;" transform="translate(123.968031 606.617658)scale(0.297 -0.297)">
       <use xlink:href="#ArialMT-50"/>
       <use x="55.615234" xlink:href="#ArialMT-53"/>
      </g>
     </g>
    </g>
    <g id="ytick_2">
     <g id="line2d_8">
      <path clip-path="url(#p1bb1440db9)" d="M 166.5 527.513484 
L 1198.8 527.513484 
" style="fill:none;stroke:#ffffff;stroke-linecap:round;"/>
     </g>
     <g id="text_9">
      <!-- 50 -->
      <g style="fill:#262626;" transform="translate(123.968031 538.142835)scale(0.297 -0.297)">
       <use xlink:href="#ArialMT-53"/>
       <use x="55.615234" xlink:href="#ArialMT-48"/>
      </g>
     </g>
    </g>
    <g id="ytick_3">
     <g id="line2d_9">
      <path clip-path="url(#p1bb1440db9)" d="M 166.5 459.038661 
L 1198.8 459.038661 
" style="fill:none;stroke:#ffffff;stroke-linecap:round;"/>
     </g>
     <g id="text_10">
      <!-- 75 -->
      <defs>
       <path d="M 4.734375 62.203125 
L 4.734375 70.65625 
L 51.078125 70.65625 
L 51.078125 63.8125 
Q 44.234375 56.546875 37.515625 44.484375 
Q 30.8125 32.421875 27.15625 19.671875 
Q 24.515625 10.6875 23.78125 0 
L 14.75 0 
Q 14.890625 8.453125 18.0625 20.40625 
Q 21.234375 32.375 27.171875 43.484375 
Q 33.109375 54.59375 39.796875 62.203125 
z
" id="ArialMT-55"/>
      </defs>
      <g style="fill:#262626;" transform="translate(123.968031 469.668012)scale(0.297 -0.297)">
       <use xlink:href="#ArialMT-55"/>
       <use x="55.615234" xlink:href="#ArialMT-53"/>
      </g>
     </g>
    </g>
    <g id="ytick_4">
     <g id="line2d_10">
      <path clip-path="url(#p1bb1440db9)" d="M 166.5 390.563838 
L 1198.8 390.563838 
" style="fill:none;stroke:#ffffff;stroke-linecap:round;"/>
     </g>
     <g id="text_11">
      <!-- 100 -->
      <g style="fill:#262626;" transform="translate(107.452047 401.193189)scale(0.297 -0.297)">
       <use xlink:href="#ArialMT-49"/>
       <use x="55.615234" xlink:href="#ArialMT-48"/>
       <use x="111.230469" xlink:href="#ArialMT-48"/>
      </g>
     </g>
    </g>
    <g id="ytick_5">
     <g id="line2d_11">
      <path clip-path="url(#p1bb1440db9)" d="M 166.5 322.089015 
L 1198.8 322.089015 
" style="fill:none;stroke:#ffffff;stroke-linecap:round;"/>
     </g>
     <g id="text_12">
      <!-- 125 -->
      <g style="fill:#262626;" transform="translate(107.452047 332.718366)scale(0.297 -0.297)">
       <use xlink:href="#ArialMT-49"/>
       <use x="55.615234" xlink:href="#ArialMT-50"/>
       <use x="111.230469" xlink:href="#ArialMT-53"/>
      </g>
     </g>
    </g>
    <g id="ytick_6">
     <g id="line2d_12">
      <path clip-path="url(#p1bb1440db9)" d="M 166.5 253.614192 
L 1198.8 253.614192 
" style="fill:none;stroke:#ffffff;stroke-linecap:round;"/>
     </g>
     <g id="text_13">
      <!-- 150 -->
      <g style="fill:#262626;" transform="translate(107.452047 264.243543)scale(0.297 -0.297)">
       <use xlink:href="#ArialMT-49"/>
       <use x="55.615234" xlink:href="#ArialMT-53"/>
       <use x="111.230469" xlink:href="#ArialMT-48"/>
      </g>
     </g>
    </g>
    <g id="ytick_7">
     <g id="line2d_13">
      <path clip-path="url(#p1bb1440db9)" d="M 166.5 185.139369 
L 1198.8 185.139369 
" style="fill:none;stroke:#ffffff;stroke-linecap:round;"/>
     </g>
     <g id="text_14">
      <!-- 175 -->
      <g style="fill:#262626;" transform="translate(107.452047 195.76872)scale(0.297 -0.297)">
       <use xlink:href="#ArialMT-49"/>
       <use x="55.615234" xlink:href="#ArialMT-55"/>
       <use x="111.230469" xlink:href="#ArialMT-53"/>
      </g>
     </g>
    </g>
    <g id="ytick_8">
     <g id="line2d_14">
      <path clip-path="url(#p1bb1440db9)" d="M 166.5 116.664545 
L 1198.8 116.664545 
" style="fill:none;stroke:#ffffff;stroke-linecap:round;"/>
     </g>
     <g id="text_15">
      <!-- 200 -->
      <g style="fill:#262626;" transform="translate(107.452047 127.293897)scale(0.297 -0.297)">
       <use xlink:href="#ArialMT-50"/>
       <use x="55.615234" xlink:href="#ArialMT-48"/>
       <use x="111.230469" xlink:href="#ArialMT-48"/>
      </g>
     </g>
    </g>
    <g id="text_16">
     <!-- Rewards -->
     <defs>
      <path d="M 7.859375 0 
L 7.859375 71.578125 
L 39.59375 71.578125 
Q 49.171875 71.578125 54.140625 69.640625 
Q 59.125 67.71875 62.109375 62.828125 
Q 65.09375 57.953125 65.09375 52.046875 
Q 65.09375 44.4375 60.15625 39.203125 
Q 55.21875 33.984375 44.921875 32.5625 
Q 48.6875 30.765625 50.640625 29 
Q 54.78125 25.203125 58.5 19.484375 
L 70.953125 0 
L 59.03125 0 
L 49.5625 14.890625 
Q 45.40625 21.34375 42.71875 24.75 
Q 40.046875 28.171875 37.921875 29.53125 
Q 35.796875 30.90625 33.59375 31.453125 
Q 31.984375 31.78125 28.328125 31.78125 
L 17.328125 31.78125 
L 17.328125 0 
z
M 17.328125 39.984375 
L 37.703125 39.984375 
Q 44.1875 39.984375 47.84375 41.328125 
Q 51.515625 42.671875 53.421875 45.625 
Q 55.328125 48.578125 55.328125 52.046875 
Q 55.328125 57.125 51.640625 60.390625 
Q 47.953125 63.671875 39.984375 63.671875 
L 17.328125 63.671875 
z
" id="ArialMT-82"/>
      <path d="M 16.15625 0 
L 0.296875 51.859375 
L 9.375 51.859375 
L 17.625 21.921875 
L 20.703125 10.796875 
Q 20.90625 11.625 23.390625 21.484375 
L 31.640625 51.859375 
L 40.671875 51.859375 
L 48.4375 21.78125 
L 51.03125 11.859375 
L 54 21.875 
L 62.890625 51.859375 
L 71.4375 51.859375 
L 55.21875 0 
L 46.09375 0 
L 37.84375 31.0625 
L 35.84375 39.890625 
L 25.34375 0 
z
" id="ArialMT-119"/>
      <path d="M 40.4375 6.390625 
Q 35.546875 2.25 31.03125 0.53125 
Q 26.515625 -1.171875 21.34375 -1.171875 
Q 12.796875 -1.171875 8.203125 3 
Q 3.609375 7.171875 3.609375 13.671875 
Q 3.609375 17.484375 5.34375 20.625 
Q 7.078125 23.78125 9.890625 25.6875 
Q 12.703125 27.59375 16.21875 28.5625 
Q 18.796875 29.25 24.03125 29.890625 
Q 34.671875 31.15625 39.703125 32.90625 
Q 39.75 34.71875 39.75 35.203125 
Q 39.75 40.578125 37.25 42.78125 
Q 33.890625 45.75 27.25 45.75 
Q 21.046875 45.75 18.09375 43.578125 
Q 15.140625 41.40625 13.71875 35.890625 
L 5.125 37.0625 
Q 6.296875 42.578125 8.984375 45.96875 
Q 11.671875 49.359375 16.75 51.1875 
Q 21.828125 53.03125 28.515625 53.03125 
Q 35.15625 53.03125 39.296875 51.46875 
Q 43.453125 49.90625 45.40625 47.53125 
Q 47.359375 45.171875 48.140625 41.546875 
Q 48.578125 39.3125 48.578125 33.453125 
L 48.578125 21.734375 
Q 48.578125 9.46875 49.140625 6.21875 
Q 49.703125 2.984375 51.375 0 
L 42.1875 0 
Q 40.828125 2.734375 40.4375 6.390625 
z
M 39.703125 26.03125 
Q 34.90625 24.078125 25.34375 22.703125 
Q 19.921875 21.921875 17.671875 20.9375 
Q 15.4375 19.96875 14.203125 18.09375 
Q 12.984375 16.21875 12.984375 13.921875 
Q 12.984375 10.40625 15.640625 8.0625 
Q 18.3125 5.71875 23.4375 5.71875 
Q 28.515625 5.71875 32.46875 7.9375 
Q 36.421875 10.15625 38.28125 14.015625 
Q 39.703125 17 39.703125 22.796875 
z
" id="ArialMT-97"/>
      <path d="M 6.5 0 
L 6.5 51.859375 
L 14.40625 51.859375 
L 14.40625 44 
Q 17.4375 49.515625 20 51.265625 
Q 22.5625 53.03125 25.640625 53.03125 
Q 30.078125 53.03125 34.671875 50.203125 
L 31.640625 42.046875 
Q 28.421875 43.953125 25.203125 43.953125 
Q 22.3125 43.953125 20.015625 42.21875 
Q 17.71875 40.484375 16.75 37.40625 
Q 15.28125 32.71875 15.28125 27.15625 
L 15.28125 0 
z
" id="ArialMT-114"/>
     </defs>
     <g style="fill:#262626;" transform="translate(98.880797 421.484688)rotate(-90)scale(0.23 -0.23)">
      <use xlink:href="#ArialMT-82"/>
      <use x="72.216797" xlink:href="#ArialMT-101"/>
      <use x="127.832031" xlink:href="#ArialMT-119"/>
      <use x="200.048828" xlink:href="#ArialMT-97"/>
      <use x="255.664062" xlink:href="#ArialMT-114"/>
      <use x="288.964844" xlink:href="#ArialMT-100"/>
      <use x="344.580078" xlink:href="#ArialMT-115"/>
     </g>
    </g>
   </g>
   <g id="line2d_15">
    <path clip-path="url(#p1bb1440db9)" d="M 213.422727 633.952744 
L 215.745635 633.836713 
L 221.227696 633.448493 
L 225.037264 633.541166 
L 228.010585 633.791899 
L 234.235977 634.520853 
L 236.280135 634.345499 
L 240.647201 633.902565 
L 243.434689 633.918725 
L 249.288416 634.017334 
L 254.770477 634.030857 
L 262.668362 634.410824 
L 265.641683 634.430782 
L 269.079586 634.189107 
L 277.99955 633.364247 
L 281.99495 632.546421 
L 285.247021 631.967245 
L 287.198263 631.844789 
L 288.963672 631.954103 
L 291.007831 632.316279 
L 305.781521 635.495641 
L 307.918596 635.548022 
L 310.613168 635.366811 
L 321.670207 634.188647 
L 323.435617 633.711909 
L 324.922277 633.086703 
L 326.408938 632.219907 
L 328.917678 630.424499 
L 330.311422 629.581248 
L 331.333501 629.215499 
L 332.262664 629.133339 
L 333.098911 629.274283 
L 334.12099 629.690498 
L 335.607651 630.586184 
L 337.37306 631.611581 
L 338.39514 631.956613 
L 339.231386 632.02284 
L 340.067633 631.861271 
L 340.903879 631.459075 
L 341.833042 630.743698 
L 343.040954 629.488341 
L 345.363861 626.991668 
L 346.200108 626.445757 
L 346.850522 626.252972 
L 347.500936 626.286229 
L 348.15135 626.544083 
L 348.89468 627.085549 
L 349.91676 628.152685 
L 353.354662 632.047709 
L 354.376742 632.76179 
L 355.398821 633.205816 
L 356.4209 633.410963 
L 357.535896 633.402655 
L 358.650891 633.173594 
L 359.765887 632.708035 
L 360.787966 632.028679 
L 361.717129 631.154629 
L 362.739208 629.870627 
L 363.854203 628.083054 
L 365.526697 624.886919 
L 367.19919 621.812779 
L 368.128353 620.539948 
L 368.871683 619.867206 
L 369.522097 619.553319 
L 370.172511 619.482136 
L 370.915842 619.641783 
L 373.424581 620.454663 
L 373.982079 620.278999 
L 374.539577 619.832359 
L 375.097075 619.064598 
L 375.747489 617.716145 
L 376.490819 615.547495 
L 377.327066 612.333458 
L 378.349145 607.472572 
L 380.48622 595.829089 
L 381.879964 588.946458 
L 382.902043 584.988196 
L 383.73829 582.600879 
L 384.48162 581.145005 
L 385.132034 580.365307 
L 385.689532 580.033826 
L 386.24703 579.974207 
L 386.804527 580.142373 
L 387.547858 580.619155 
L 389.4991 582.02084 
L 390.056598 582.109363 
L 390.521179 581.979628 
L 390.985761 581.635104 
L 391.543258 580.916337 
L 392.193672 579.6603 
L 393.029919 577.462552 
L 394.237831 573.541511 
L 396.189073 567.25465 
L 397.211152 564.734482 
L 398.140315 563.026967 
L 399.069478 561.769702 
L 400.463222 560.318875 
L 402.135716 558.522974 
L 403.622376 556.557396 
L 405.852367 553.585698 
L 406.874446 552.592263 
L 407.803609 551.984505 
L 408.732772 551.632583 
L 410.0336 551.408293 
L 412.077759 551.074704 
L 413.192754 550.646782 
L 414.121917 550.067237 
L 415.05108 549.217308 
L 415.887327 548.145435 
L 416.723573 546.679787 
L 417.55982 544.704408 
L 418.396067 542.093086 
L 419.232313 538.737965 
L 420.161476 534.061067 
L 421.183555 527.763148 
L 422.484383 518.244538 
L 426.479784 487.571079 
L 427.316031 483.308466 
L 427.966445 481.042223 
L 428.431026 480.054103 
L 428.802691 479.659496 
L 429.08144 479.598858 
L 429.360189 479.739068 
L 429.731854 480.233603 
L 430.196436 481.327178 
L 430.753933 483.285799 
L 431.497264 486.837636 
L 432.519343 492.979619 
L 435.492664 511.74333 
L 436.421827 515.90624 
L 437.165158 518.282734 
L 437.815572 519.63107 
L 438.280153 520.186117 
L 438.744734 520.415707 
L 439.1164 520.378483 
L 439.580981 520.074402 
L 440.138479 519.363728 
L 440.788893 518.115464 
L 441.62514 515.964051 
L 442.740135 512.395799 
L 446.178038 500.836585 
L 446.921368 499.281417 
L 447.478866 498.57152 
L 447.943447 498.326431 
L 448.315113 498.374515 
L 448.686778 498.646953 
L 449.151359 499.30761 
L 449.708857 500.560246 
L 450.359271 502.60511 
L 451.288434 506.395643 
L 454.354671 519.820747 
L 455.098002 521.825823 
L 455.748416 522.957783 
L 456.305914 523.50258 
L 456.863411 523.731411 
L 457.513825 523.736366 
L 458.814653 523.662656 
L 459.372151 523.884219 
L 459.929649 524.382148 
L 460.487147 525.195876 
L 461.137561 526.539541 
L 462.066724 529.042555 
L 464.203798 535.063813 
L 464.854212 536.238968 
L 465.41171 536.809311 
L 465.876292 536.941954 
L 466.247957 536.818567 
L 466.712538 536.380974 
L 467.270036 535.470212 
L 468.013366 533.704208 
L 469.035446 530.590532 
L 471.079604 524.217685 
L 471.915851 522.28763 
L 472.659181 521.088891 
L 473.309595 520.450595 
L 473.867093 520.188405 
L 474.42459 520.155945 
L 475.075005 520.350551 
L 475.911251 520.858323 
L 478.884572 522.936446 
L 479.534986 523.038572 
L 480.092484 522.902527 
L 480.649982 522.507116 
L 481.20748 521.794994 
L 481.764977 520.712552 
L 482.415392 518.912624 
L 483.158722 516.076874 
L 483.994968 511.843859 
L 484.924131 505.895359 
L 486.132043 496.528986 
L 488.083285 479.290143 
L 490.499109 458.410216 
L 491.98577 447.431905 
L 493.100765 440.683648 
L 494.029928 436.295508 
L 494.773258 433.699996 
L 495.423672 432.134065 
L 495.98117 431.310645 
L 496.445752 430.978449 
L 496.817417 430.933362 
L 497.281998 431.140355 
L 497.74658 431.625019 
L 498.304077 432.560705 
L 498.954491 434.134058 
L 499.697822 436.598196 
L 500.441152 439.852186 
L 501.277399 444.611005 
L 502.113645 450.66836 
L 503.135725 459.883976 
L 504.436553 474.035494 
L 507.688623 510.750149 
L 508.617786 518.505034 
L 509.454032 523.75078 
L 510.197363 526.989701 
L 510.75486 528.57074 
L 511.312358 529.50278 
L 511.77694 529.845073 
L 512.148605 529.880244 
L 512.613186 529.681456 
L 513.2636 529.085119 
L 515.400675 526.830002 
L 515.958173 526.635908 
L 516.515671 526.695051 
L 517.166085 527.045942 
L 519.117327 528.404084 
L 519.488992 528.345192 
L 519.860657 528.058208 
L 520.232322 527.491248 
L 520.696904 526.321495 
L 521.254401 524.156245 
L 521.904815 520.483802 
L 522.648146 514.750412 
L 523.577309 505.496294 
L 524.878137 489.812649 
L 527.479793 457.872174 
L 528.594788 447.028898 
L 529.523951 439.893518 
L 530.453114 434.463274 
L 531.289361 430.913411 
L 532.032691 428.736795 
L 532.590189 427.670812 
L 533.05477 427.141654 
L 533.519352 426.937779 
L 533.891017 427.011027 
L 534.262682 427.295193 
L 534.727264 427.949228 
L 535.284761 429.172613 
L 535.935176 431.179861 
L 536.771422 434.55878 
L 538.165167 441.341843 
L 539.373078 446.814515 
L 540.023492 448.939429 
L 540.58099 450.056419 
L 540.952655 450.379011 
L 541.231404 450.384541 
L 541.510153 450.187549 
L 541.881818 449.613951 
L 542.3464 448.417408 
L 542.996814 445.975007 
L 543.925977 441.44289 
L 545.59847 433.253872 
L 546.3418 430.76507 
L 546.899298 429.59483 
L 547.363879 429.06726 
L 547.828461 428.887872 
L 548.293042 428.964737 
L 549.779703 429.449874 
L 550.151368 429.260339 
L 550.523033 428.819547 
L 550.987615 427.842893 
L 551.545113 425.983368 
L 552.195527 422.859378 
L 553.031773 417.551499 
L 556.098011 396.532813 
L 556.841341 393.545193 
L 557.398839 392.085072 
L 557.956337 391.228339 
L 558.420918 390.90476 
L 558.8855 390.867561 
L 559.350081 391.056121 
L 559.907579 391.517563 
L 560.650909 392.46285 
L 561.394239 393.790587 
L 562.13757 395.609294 
L 562.8809 398.054887 
L 563.717147 401.622784 
L 564.925059 407.923282 
L 566.225887 414.484487 
L 566.876301 416.771271 
L 567.340882 417.716603 
L 567.619631 417.958238 
L 567.89838 417.934558 
L 568.177129 417.636197 
L 568.548794 416.805402 
L 569.013375 415.085143 
L 569.570873 412.103366 
L 570.40712 406.177553 
L 572.730027 388.651279 
L 573.380441 385.737054 
L 573.845023 384.59442 
L 574.123771 384.312288 
L 574.40252 384.338879 
L 574.681269 384.670392 
L 575.052934 385.573038 
L 575.517516 387.391163 
L 576.16793 391.046061 
L 577.097093 397.858864 
L 579.605833 417.210292 
L 580.442079 421.737296 
L 581.18541 424.555264 
L 581.835824 426.143714 
L 582.393321 426.958262 
L 582.950819 427.392654 
L 583.601233 427.592654 
L 586.109973 428.037921 
L 587.132052 428.306637 
L 587.68955 428.243722 
L 588.154131 427.984768 
L 588.618713 427.487763 
L 589.176211 426.543119 
L 589.826625 424.972718 
L 590.755788 422.072417 
L 592.428281 416.755084 
L 593.171611 415.085385 
L 593.914941 413.928928 
L 595.122853 412.194859 
L 595.587435 411.056666 
L 596.052016 409.328951 
L 596.516598 406.786488 
L 597.074095 402.3611 
L 597.631593 396.149458 
L 598.282007 386.379164 
L 599.025338 371.778136 
L 599.9545 348.800885 
L 601.255329 310.378051 
L 604.042817 226.408785 
L 605.250729 197.115533 
L 606.365725 175.333218 
L 607.387804 159.562123 
L 608.316967 148.335777 
L 609.24613 139.767002 
L 610.082376 134.126858 
L 610.825707 130.640984 
L 611.383204 128.924249 
L 611.847786 128.060275 
L 612.219451 127.729427 
L 612.591116 127.710671 
L 612.962781 127.996163 
L 613.334446 128.577933 
L 613.799028 129.707176 
L 614.449442 131.997424 
L 615.192772 135.52847 
L 616.214851 141.643708 
L 619.188173 160.5102 
L 619.838587 163.119521 
L 620.396085 164.559121 
L 620.860666 165.160398 
L 621.232331 165.257179 
L 621.603996 165.037497 
L 622.068578 164.381278 
L 622.718992 162.959934 
L 624.01982 159.999937 
L 624.391485 159.587394 
L 624.670234 159.524555 
L 624.948983 159.719561 
L 625.227732 160.214169 
L 625.599397 161.403149 
L 626.063978 163.844277 
L 626.621476 168.317555 
L 627.27189 175.789072 
L 628.015221 187.227911 
L 628.944383 205.194757 
L 632.103537 270.032778 
L 632.753951 278.224795 
L 633.311449 282.764332 
L 633.683114 284.462417 
L 633.961863 285.041945 
L 634.147696 285.107557 
L 634.333528 284.923399 
L 634.612277 284.201338 
L 634.983942 282.46366 
L 635.54144 278.410434 
L 636.28477 270.949518 
L 637.678515 253.893162 
L 639.351008 234.239264 
L 640.55892 222.730207 
L 641.673915 214.127801 
L 642.788911 207.127304 
L 643.903906 201.51332 
L 644.925986 197.429023 
L 646.133897 193.513118 
L 648.178056 187.00413 
L 649.5718 181.524702 
L 650.965545 176.171761 
L 651.615959 174.419421 
L 652.08054 173.689119 
L 652.452205 173.486233 
L 652.730954 173.579895 
L 653.009703 173.895378 
L 653.381368 174.667481 
L 653.84595 176.188727 
L 654.496364 179.264936 
L 655.425527 185.058432 
L 657.190936 196.330653 
L 657.84135 199.016572 
L 658.305932 200.088679 
L 658.58468 200.351952 
L 658.863429 200.318858 
L 659.142178 199.985783 
L 659.513843 199.080216 
L 659.978425 197.235871 
L 660.628839 193.473232 
L 661.465086 187.088954 
L 664.717156 160.451822 
L 665.460486 156.64055 
L 666.1109 154.43208 
L 666.575482 153.517273 
L 666.947147 153.184892 
L 667.225896 153.166223 
L 667.504644 153.341534 
L 667.87631 153.870177 
L 668.340891 154.982859 
L 668.898389 156.932517 
L 669.641719 160.444534 
L 670.663798 166.564417 
L 672.800873 181.30588 
L 674.473366 192.015278 
L 676.052943 200.720236 
L 677.725437 208.758162 
L 678.933348 213.631487 
L 679.862511 216.580491 
L 680.698758 218.557622 
L 681.535005 219.994782 
L 684.229577 224.115017 
L 685.344572 226.697901 
L 687.202898 231.111752 
L 688.039145 232.488964 
L 688.875392 233.416519 
L 690.17622 234.764155 
L 690.733717 235.745018 
L 691.291215 237.2225 
L 691.848713 239.34221 
L 692.499127 242.752526 
L 693.242457 247.92613 
L 694.17162 256.055374 
L 695.844113 273.131512 
L 697.702439 291.321145 
L 699.839514 309.531957 
L 701.883672 327.78172 
L 703.741998 344.177956 
L 704.671161 350.51839 
L 705.414491 354.10565 
L 705.971989 355.848823 
L 706.436571 356.701189 
L 706.808236 357.026661 
L 707.179901 357.075281 
L 707.551566 356.891662 
L 708.016148 356.406902 
L 708.759478 355.259682 
L 710.803636 351.898917 
L 711.918632 350.581955 
L 714.055707 348.18854 
L 715.077786 346.59063 
L 716.006949 344.735323 
L 716.936112 342.401321 
L 717.772358 339.732051 
L 718.608605 336.257794 
L 719.351935 332.215133 
L 720.095266 327.009273 
L 720.931512 319.492232 
L 721.860675 308.911862 
L 722.975671 293.374739 
L 727.24982 230.034814 
L 728.364815 218.506218 
L 729.851476 205.714179 
L 731.616886 190.288367 
L 733.103546 175.08471 
L 735.983951 144.990351 
L 737.098947 135.944491 
L 738.02811 130.080091 
L 738.864356 126.057427 
L 739.700603 123.071703 
L 740.53685 120.932234 
L 741.373096 119.441676 
L 742.209343 118.429363 
L 743.04559 117.75909 
L 743.974752 117.297969 
L 745.089748 117.009853 
L 746.204743 116.941234 
L 747.226823 117.093743 
L 748.063069 117.440882 
L 748.8064 118.014454 
L 749.456814 118.822994 
L 750.107228 120.037148 
L 750.757642 121.797044 
L 751.408056 124.265072 
L 752.05847 127.612371 
L 752.8018 132.72213 
L 753.545131 139.380215 
L 754.474293 149.977612 
L 755.589289 165.645058 
L 758.469694 208.170034 
L 759.213024 215.298332 
L 759.770522 218.620772 
L 760.142187 219.757129 
L 760.420936 220.019343 
L 760.606769 219.910423 
L 760.885518 219.323349 
L 761.257183 217.765258 
L 761.721764 214.632696 
L 762.279262 209.307137 
L 763.115509 198.755501 
L 764.509253 177.447225 
L 766.181746 152.642607 
L 767.203825 140.570834 
L 768.132988 132.215824 
L 768.969235 126.733122 
L 769.712565 123.250267 
L 770.455896 120.820073 
L 771.10631 119.361226 
L 771.756724 118.367182 
L 772.500054 117.638602 
L 773.336301 117.162433 
L 774.35838 116.873155 
L 775.752124 116.734358 
L 778.35378 116.738606 
L 784.207507 117.003215 
L 785.415419 117.280168 
L 786.251665 117.697989 
L 786.902079 118.251817 
L 787.552493 119.106252 
L 788.202907 120.381076 
L 788.853321 122.220383 
L 789.503735 124.785563 
L 790.154149 128.246787 
L 790.89748 133.499753 
L 791.733726 141.276527 
L 792.662889 152.326663 
L 793.777885 168.536216 
L 797.029955 218.057632 
L 797.773285 225.344268 
L 798.330783 228.977539 
L 798.795365 230.703737 
L 799.074113 231.159163 
L 799.259946 231.221749 
L 799.445779 231.093747 
L 799.724527 230.551243 
L 800.096193 229.196575 
L 800.560774 226.553468 
L 801.211188 221.284562 
L 802.047435 212.364974 
L 803.348263 195.548764 
L 806.135752 158.800313 
L 807.343663 145.907742 
L 808.365743 137.109273 
L 809.294905 130.825262 
L 810.131152 126.480378 
L 810.967399 123.235255 
L 811.710729 121.132818 
L 812.454059 119.632012 
L 813.19739 118.605083 
L 813.94072 117.935211 
L 814.776967 117.486524 
L 815.799046 117.21879 
L 817.285707 117.104665 
L 823.882763 116.846766 
L 827.785248 116.720143 
L 830.851485 116.83814 
L 834.010639 117.200555 
L 836.891044 117.475109 
L 838.842286 117.427515 
L 843.395185 117.161533 
L 844.324347 117.418353 
L 845.067678 117.869113 
L 845.718092 118.54076 
L 846.368506 119.585432 
L 847.01892 121.143628 
L 847.669334 123.383855 
L 848.319748 126.496332 
L 848.970162 130.679597 
L 849.713492 137.007953 
L 850.549739 146.33973 
L 851.478902 159.530272 
L 852.686814 180.428137 
L 855.28847 227.079029 
L 856.0318 236.494811 
L 856.589298 241.413585 
L 857.053879 243.936869 
L 857.425545 244.883614 
L 857.611377 244.999648 
L 857.79721 244.880831 
L 858.075959 244.272643 
L 858.447624 242.696038 
L 858.912205 239.598201 
L 859.562619 233.494851 
L 860.491782 222.319574 
L 863.186355 188.421939 
L 864.208434 178.762945 
L 865.230513 171.110771 
L 866.438425 163.818168 
L 868.110918 155.237915 
L 869.690495 148.196476 
L 870.712574 144.521994 
L 871.548821 142.287778 
L 872.199235 141.139687 
L 872.663816 140.677615 
L 873.035482 140.541284 
L 873.407147 140.625089 
L 873.778812 140.940671 
L 874.243393 141.67893 
L 874.800891 143.097856 
L 875.451305 145.52997 
L 876.194635 149.365498 
L 877.030882 154.992152 
L 878.145878 164.295436 
L 880.84045 187.842038 
L 881.58378 192.065495 
L 882.141278 193.981248 
L 882.512943 194.583382 
L 882.791692 194.663233 
L 883.070441 194.418048 
L 883.442106 193.588728 
L 883.906688 191.764334 
L 884.464185 188.499927 
L 885.207516 182.58895 
L 886.229595 172.428976 
L 888.924167 144.631177 
L 889.85333 137.492466 
L 890.689577 132.685635 
L 891.432907 129.67241 
L 892.083321 127.905673 
L 892.640819 126.939213 
L 893.198317 126.3838 
L 893.755815 126.145219 
L 894.406229 126.143622 
L 895.428308 126.435692 
L 896.729136 126.770604 
L 897.565383 126.750002 
L 898.401629 126.496843 
L 899.423708 125.929693 
L 902.025365 124.340742 
L 902.954527 124.100216 
L 903.88369 124.105468 
L 904.998686 124.355241 
L 907.042844 124.858537 
L 907.972007 124.825998 
L 908.808254 124.575985 
L 909.737417 124.060262 
L 911.038245 123.043025 
L 913.454068 121.116175 
L 914.66198 120.471661 
L 915.869892 120.079824 
L 917.542385 119.806007 
L 920.329874 119.595109 
L 921.537786 119.684351 
L 922.466949 119.967289 
L 923.303195 120.473644 
L 924.046526 121.186312 
L 924.789856 122.190068 
L 925.626103 123.693973 
L 926.648182 126.04337 
L 928.134842 130.131833 
L 929.714419 134.339658 
L 930.550666 136.011725 
L 931.20108 136.877943 
L 931.758578 137.266701 
L 932.223159 137.326915 
L 932.687741 137.148698 
L 933.245239 136.636385 
L 933.895653 135.676058 
L 934.731899 134.004927 
L 938.169802 126.58713 
L 939.006049 125.494895 
L 939.842295 124.762009 
L 940.678542 124.311605 
L 941.886454 123.940844 
L 943.837696 123.349753 
L 945.045608 122.729096 
L 946.532268 121.685126 
L 950.99225 118.331344 
L 952.478911 117.598212 
L 953.965572 117.125727 
L 955.638065 116.841862 
L 957.960972 116.698698 
L 963.071368 116.664545 
L 1085.256292 116.775394 
L 1087.672115 117.051928 
L 1090.366688 117.614677 
L 1092.596679 118.006122 
L 1094.083339 118.046979 
L 1095.662916 117.862251 
L 1101.888308 116.842106 
L 1103.467885 116.923066 
L 1104.675797 117.193426 
L 1105.697876 117.653153 
L 1106.627039 118.339881 
L 1107.463285 119.241454 
L 1108.299532 120.463872 
L 1109.228695 122.237186 
L 1110.250774 124.694961 
L 1111.551602 128.479639 
L 1116.1045 142.468881 
L 1116.940747 144.0944 
L 1117.591161 144.928325 
L 1118.148659 145.293602 
L 1118.61324 145.328401 
L 1119.077822 145.105463 
L 1119.542403 144.619711 
L 1120.099901 143.694027 
L 1120.750315 142.168737 
L 1121.586562 139.602695 
L 1122.794473 135.086218 
L 1125.210297 125.909078 
L 1126.232376 122.899899 
L 1127.161539 120.838233 
L 1127.997786 119.539925 
L 1128.741116 118.812486 
L 1129.39153 118.492595 
L 1129.949028 118.451713 
L 1130.506526 118.632144 
L 1131.064023 119.047249 
L 1131.714437 119.855019 
L 1132.364851 121.049418 
L 1133.108182 122.940401 
L 1133.944428 125.791858 
L 1134.873591 129.856788 
L 1136.081503 136.276556 
L 1138.311494 148.403198 
L 1139.054824 151.312245 
L 1139.612322 152.79232 
L 1140.076904 153.491227 
L 1140.448569 153.677329 
L 1140.727318 153.594996 
L 1141.098983 153.19145 
L 1141.563564 152.231396 
L 1142.121062 150.465953 
L 1142.864392 147.246196 
L 1143.979388 141.221846 
L 1146.209379 128.990806 
L 1147.231458 124.700359 
L 1148.067705 122.043625 
L 1148.903951 120.115397 
L 1149.647282 118.929908 
L 1150.390612 118.155273 
L 1151.133942 117.718154 
L 1151.784356 117.571498 
L 1151.877273 117.567359 
L 1151.877273 117.567359 
" style="fill:none;stroke:#d9544d;stroke-linecap:round;stroke-width:4;"/>
   </g>
   <g id="patch_3">
    <path d="M 166.5 661.5 
L 166.5 90.72 
" style="fill:none;stroke:#ffffff;stroke-linecap:square;stroke-linejoin:miter;stroke-width:1.25;"/>
   </g>
   <g id="patch_4">
    <path d="M 1198.8 661.5 
L 1198.8 90.72 
" style="fill:none;stroke:#ffffff;stroke-linecap:square;stroke-linejoin:miter;stroke-width:1.25;"/>
   </g>
   <g id="patch_5">
    <path d="M 166.5 661.5 
L 1198.8 661.5 
" style="fill:none;stroke:#ffffff;stroke-linecap:square;stroke-linejoin:miter;stroke-width:1.25;"/>
   </g>
   <g id="patch_6">
    <path d="M 166.5 90.72 
L 1198.8 90.72 
" style="fill:none;stroke:#ffffff;stroke-linecap:square;stroke-linejoin:miter;stroke-width:1.25;"/>
   </g>
   <g id="text_17">
    <!-- DQN - CartPole-v0 -->
    <defs>
     <path d="M 7.71875 0 
L 7.71875 71.578125 
L 32.375 71.578125 
Q 40.71875 71.578125 45.125 70.5625 
Q 51.265625 69.140625 55.609375 65.4375 
Q 61.28125 60.640625 64.078125 53.1875 
Q 66.890625 45.75 66.890625 36.1875 
Q 66.890625 28.03125 64.984375 21.734375 
Q 63.09375 15.4375 60.109375 11.296875 
Q 57.125 7.171875 53.578125 4.796875 
Q 50.046875 2.4375 45.046875 1.21875 
Q 40.046875 0 33.546875 0 
z
M 17.1875 8.453125 
L 32.46875 8.453125 
Q 39.546875 8.453125 43.578125 9.765625 
Q 47.609375 11.078125 50 13.484375 
Q 53.375 16.84375 55.25 22.53125 
Q 57.125 28.21875 57.125 36.328125 
Q 57.125 47.5625 53.4375 53.59375 
Q 49.75 59.625 44.484375 61.671875 
Q 40.671875 63.140625 32.234375 63.140625 
L 17.1875 63.140625 
z
" id="ArialMT-68"/>
     <path d="M 61.96875 7.671875 
Q 68.5625 3.125 74.125 1.03125 
L 71.34375 -5.5625 
Q 63.625 -2.78125 55.953125 3.21875 
Q 48 -1.21875 38.375 -1.21875 
Q 28.65625 -1.21875 20.75 3.46875 
Q 12.84375 8.15625 8.5625 16.640625 
Q 4.296875 25.140625 4.296875 35.796875 
Q 4.296875 46.390625 8.59375 55.078125 
Q 12.890625 63.765625 20.828125 68.3125 
Q 28.765625 72.859375 38.578125 72.859375 
Q 48.484375 72.859375 56.4375 68.140625 
Q 64.40625 63.421875 68.578125 54.953125 
Q 72.75 46.484375 72.75 35.84375 
Q 72.75 27 70.0625 19.9375 
Q 67.390625 12.890625 61.96875 7.671875 
z
M 41.109375 19.78125 
Q 49.3125 17.484375 54.640625 12.9375 
Q 62.984375 20.5625 62.984375 35.84375 
Q 62.984375 44.53125 60.03125 51.015625 
Q 57.078125 57.515625 51.390625 61.109375 
Q 45.703125 64.703125 38.625 64.703125 
Q 28.03125 64.703125 21.046875 57.453125 
Q 14.0625 50.203125 14.0625 35.796875 
Q 14.0625 21.828125 20.96875 14.359375 
Q 27.875 6.890625 38.625 6.890625 
Q 43.703125 6.890625 48.1875 8.796875 
Q 43.75 11.671875 38.8125 12.890625 
z
" id="ArialMT-81"/>
     <path d="M 7.625 0 
L 7.625 71.578125 
L 17.328125 71.578125 
L 54.9375 15.375 
L 54.9375 71.578125 
L 64.015625 71.578125 
L 64.015625 0 
L 54.296875 0 
L 16.703125 56.25 
L 16.703125 0 
z
" id="ArialMT-78"/>
     <path id="ArialMT-32"/>
     <path d="M 3.171875 21.484375 
L 3.171875 30.328125 
L 30.171875 30.328125 
L 30.171875 21.484375 
z
" id="ArialMT-45"/>
     <path d="M 58.796875 25.09375 
L 68.265625 22.703125 
Q 65.28125 11.03125 57.546875 4.90625 
Q 49.8125 -1.21875 38.625 -1.21875 
Q 27.046875 -1.21875 19.796875 3.484375 
Q 12.546875 8.203125 8.765625 17.140625 
Q 4.984375 26.078125 4.984375 36.328125 
Q 4.984375 47.515625 9.25 55.828125 
Q 13.53125 64.15625 21.40625 68.46875 
Q 29.296875 72.796875 38.765625 72.796875 
Q 49.515625 72.796875 56.828125 67.328125 
Q 64.15625 61.859375 67.046875 51.953125 
L 57.71875 49.75 
Q 55.21875 57.5625 50.484375 61.125 
Q 45.75 64.703125 38.578125 64.703125 
Q 30.328125 64.703125 24.78125 60.734375 
Q 19.234375 56.78125 16.984375 50.109375 
Q 14.75 43.453125 14.75 36.375 
Q 14.75 27.25 17.40625 20.4375 
Q 20.0625 13.625 25.671875 10.25 
Q 31.296875 6.890625 37.84375 6.890625 
Q 45.796875 6.890625 51.3125 11.46875 
Q 56.84375 16.0625 58.796875 25.09375 
z
" id="ArialMT-67"/>
     <path d="M 25.78125 7.859375 
L 27.046875 0.09375 
Q 23.34375 -0.6875 20.40625 -0.6875 
Q 15.625 -0.6875 12.984375 0.828125 
Q 10.359375 2.34375 9.28125 4.8125 
Q 8.203125 7.28125 8.203125 15.1875 
L 8.203125 45.015625 
L 1.765625 45.015625 
L 1.765625 51.859375 
L 8.203125 51.859375 
L 8.203125 64.703125 
L 16.9375 69.96875 
L 16.9375 51.859375 
L 25.78125 51.859375 
L 25.78125 45.015625 
L 16.9375 45.015625 
L 16.9375 14.703125 
Q 16.9375 10.9375 17.40625 9.859375 
Q 17.875 8.796875 18.921875 8.15625 
Q 19.96875 7.515625 21.921875 7.515625 
Q 23.390625 7.515625 25.78125 7.859375 
z
" id="ArialMT-116"/>
     <path d="M 7.71875 0 
L 7.71875 71.578125 
L 34.71875 71.578125 
Q 41.84375 71.578125 45.609375 70.90625 
Q 50.875 70.015625 54.4375 67.546875 
Q 58.015625 65.09375 60.1875 60.640625 
Q 62.359375 56.203125 62.359375 50.875 
Q 62.359375 41.75 56.546875 35.421875 
Q 50.734375 29.109375 35.546875 29.109375 
L 17.1875 29.109375 
L 17.1875 0 
z
M 17.1875 37.546875 
L 35.6875 37.546875 
Q 44.875 37.546875 48.734375 40.96875 
Q 52.59375 44.390625 52.59375 50.59375 
Q 52.59375 55.078125 50.3125 58.265625 
Q 48.046875 61.46875 44.34375 62.5 
Q 41.9375 63.140625 35.5 63.140625 
L 17.1875 63.140625 
z
" id="ArialMT-80"/>
     <path d="M 6.390625 0 
L 6.390625 71.578125 
L 15.1875 71.578125 
L 15.1875 0 
z
" id="ArialMT-108"/>
     <path d="M 21 0 
L 1.265625 51.859375 
L 10.546875 51.859375 
L 21.6875 20.796875 
Q 23.484375 15.765625 25 10.359375 
Q 26.171875 14.453125 28.265625 20.21875 
L 39.796875 51.859375 
L 48.828125 51.859375 
L 29.203125 0 
z
" id="ArialMT-118"/>
    </defs>
    <g style="fill:#262626;" transform="translate(569.380781 84.72)scale(0.27 -0.27)">
     <use xlink:href="#ArialMT-68"/>
     <use x="72.216797" xlink:href="#ArialMT-81"/>
     <use x="150" xlink:href="#ArialMT-78"/>
     <use x="222.216797" xlink:href="#ArialMT-32"/>
     <use x="250" xlink:href="#ArialMT-45"/>
     <use x="283.300781" xlink:href="#ArialMT-32"/>
     <use x="311.083984" xlink:href="#ArialMT-67"/>
     <use x="383.300781" xlink:href="#ArialMT-97"/>
     <use x="438.916016" xlink:href="#ArialMT-114"/>
     <use x="472.216797" xlink:href="#ArialMT-116"/>
     <use x="500" xlink:href="#ArialMT-80"/>
     <use x="566.699219" xlink:href="#ArialMT-111"/>
     <use x="622.314453" xlink:href="#ArialMT-108"/>
     <use x="644.53125" xlink:href="#ArialMT-101"/>
     <use x="700.146484" xlink:href="#ArialMT-45"/>
     <use x="733.447266" xlink:href="#ArialMT-118"/>
     <use x="783.447266" xlink:href="#ArialMT-48"/>
    </g>
   </g>
  </g>
 </g>
 <defs>
  <clipPath id="p1bb1440db9">
   <rect height="570.78" width="1032.3" x="166.5" y="90.72"/>
  </clipPath>
 </defs>
</svg>
